<?xml version="1.0" encoding="UTF-8"?>
<svg id="Layer_1" data-name="Layer 1" xmlns="http://www.w3.org/2000/svg" viewBox="0 0 309.11 309.28">
  <path d="M239.71,149.47c-5.94,8.88-12.32,17.18-19.6,24.84l1.28-13.03c.88-8.98,1.28-17.81,1.42-26.86.35-23.39-3.7-46.33-11.75-68.24-7.26-19.79-20.98-43.67-36-58.24l-7.67-7.43c17.96,1.36,35.14,6.03,51.38,13.35,7.49,3.37,14.53,7.43,21.34,11.97,9.32,6.19,17.59,13.33,25.16,21.65.66,5.44,1.17,10.66,1.14,16.24-.18,30.56-9.66,60.26-26.7,85.76Z"/>
  <path d="M250.66,202.01c-20.47,8.84-41.11,13.4-63.7,13.99l26.94-24.31c3.85-3.48,7.23-7.07,10.78-10.87,8.49-9.09,16.15-18.87,22.92-29.34,10.62-16.41,18.27-34.32,22.62-53.35,1.26-5.51,2.11-10.83,2.84-16.41,1.06-8.15,1.28-16.01.93-24.46,2.08,2.55,3.75,4.92,5.57,7.52,7.86,11.2,14.44,23.11,19.52,35.86,6.77,17.64,10.51,37.68,9.98,56.63-15.29,19.9-35.57,34.6-58.41,44.74Z"/>
  <path d="M189.2,94.5c-8.49-8.81-20.47-19.44-30.42-26.53-10.53-7.5-21.63-14.06-33.55-19.17-21.67-9.5-46.28-14.21-70.16-12.59,3.51-3.09,7.05-5.7,10.88-8.33,10.02-6.91,20.73-12.58,32.12-17.06C116.13,3.72,135.33.24,154.76,0l7.55,6.52c11.83,10.22,22.87,25.01,30.58,38.65,13.1,23.19,20.8,51.21,21.91,78.11-8.25-10.16-16.68-19.53-25.61-28.79Z"/>
  <path d="M127.44,306.66c-12.79-2.03-24.78-6.41-36.42-11.86-15.25-7.14-29.22-16.79-41.35-28.37l-5.25-5.01c-.67-5.6-1.46-11.03-1.56-16.75-.45-25.03,5.59-49.64,17.28-71.82,7.6-14.42,17.42-27.6,29.04-39.4-1.51,13.35-2.75,26.41-3.29,39.81-.28,7.11-.19,13.81.3,20.93.74,12.98,2.95,25.67,6.52,38.18,8.43,29.49,24.38,55.2,46.95,75.93.05,0-.09.18-.19.28l-12.04-1.91Z"/>
  <path d="M156.7,239.45c-7.91-5.47-15.91-11.59-22.91-18.71,12.88,1.28,25.5,2.57,38.47,3.09,15.53.62,30.93-.43,46.11-3.48,8.68-1.75,16.96-4.13,25.27-7.13,12.33-4.44,24.04-10.28,34.98-17.51,8.76-5.79,16.99-12.11,24.22-19.64l5.46-5.69c-1.58,16.44-5.99,32.16-12.82,47.03-4.75,10.15-10.4,19.71-17.13,28.66-5.3,7.05-11.28,13.45-17.63,19.56-27.2,3.35-53.77-.94-78.66-12.01-8.94-3.97-17.32-8.62-25.36-14.17Z"/>
  <path d="M108.26,87.29c-29.24,2.81-57.56,12.55-81.57,29.61-9.5,6.57-17.99,14.02-26,22.67,3.16-32.47,15.76-61.85,36.92-86.26,2.57-3.01,5.08-5.73,8-8.43,34.49-4.34,67.72,3.71,97.22,21.84,9.03,5.55,17.46,11.77,25.33,18.78l5.26,4.68c-21.93-2.83-42.95-5.03-65.16-2.89Z"/>
  <path d="M15.43,220.21c-6.84-13.56-11.32-27.78-13.65-42.63-1.31-8.33-2.02-16.48-1.7-24.94,12.64-16.62,29.96-30.4,48.48-39.95,12.65-6.76,26.78-11.67,40.75-14.64,11.5-2.46,21.63-3.41,33.36-3.81-10.57,8.66-20.87,16.93-30.84,25.98-9.86,8.96-18.78,18.99-26.57,29.8-13.39,18.55-22.75,39.68-27.27,62.11-1.96,9.69-3.27,19.41-2.99,29.23l.27,9.49c-7.8-9.5-14.32-19.69-19.84-30.63Z"/>
  <path d="M250.72,274.5c-14.16,11.34-30.03,20.12-47.14,26.23-16.19,5.79-33.3,8.58-50.44,8.56-6.9-5.52-12.22-10.31-18.17-16.7-19.88-21.95-33.19-48.69-38.4-77.88-1.04-5.81-1.82-11.35-2.32-17.19-.3-3.56-.72-6.89-.63-10.68l13.19,16.16c4.76,5.84,9.62,11.34,14.84,16.8,8.59,8.99,17.96,16.99,28.04,24.25,7.78,5.6,17.72,11.36,26.44,15.34,9.46,4.6,19.22,7.99,29.48,10.58,14.62,3.69,29.6,5.05,45.1,4.54Z"/>
</svg>