<?xml version="1.0" encoding="UTF-8"?>
<svg id="Layer_1" xmlns="http://www.w3.org/2000/svg" version="1.1" viewBox="0 0 200.11 200.11">
  <!-- Generator: Adobe Illustrator 30.1.0, SVG Export Plug-In . SVG Version: 2.1.1 Build 136)  -->
  <path d="M152.96,96.31c-3.69,5.53-7.67,10.69-12.2,15.45l.79-8.11c.55-5.58.8-11.08.88-16.71.22-14.55-2.3-28.82-7.31-42.45-4.52-12.31-13.05-27.17-22.4-36.23l-4.77-4.62c11.17.85,21.86,3.75,31.96,8.3,4.66,2.1,9.04,4.62,13.28,7.44,5.8,3.85,10.94,8.29,15.65,13.47.41,3.38.73,6.63.71,10.1-.11,19.01-6.01,37.49-16.61,53.35Z"/>
  <path d="M159.77,128.99c-12.73,5.5-25.58,8.34-39.62,8.71l16.76-15.12c2.4-2.16,4.5-4.4,6.71-6.76,5.28-5.66,10.04-11.74,14.26-18.25,6.6-10.21,11.37-21.35,14.07-33.19.78-3.43,1.31-6.74,1.76-10.21.66-5.07.8-9.96.58-15.22,1.29,1.59,2.33,3.06,3.47,4.68,4.89,6.97,8.98,14.38,12.14,22.31,4.21,10.97,6.54,23.44,6.21,35.23-9.51,12.38-22.13,21.53-36.33,27.83Z"/>
  <path d="M121.54,62.11c-5.28-5.48-12.73-12.09-18.92-16.5-6.55-4.66-13.45-8.75-20.87-11.92-13.48-5.91-28.79-8.84-43.65-7.83,2.18-1.92,4.39-3.54,6.77-5.18,6.24-4.3,12.9-7.83,19.98-10.61,11.24-4.42,23.18-6.58,35.27-6.73l4.7,4.06c7.36,6.35,14.23,15.56,19.02,24.05,8.15,14.42,12.94,31.86,13.63,48.59-5.13-6.32-10.38-12.15-15.93-17.91Z"/>
  <path d="M83.12,194.09c-7.96-1.26-15.41-3.99-22.66-7.38-9.49-4.44-18.18-10.44-25.73-17.65l-3.26-3.12c-.42-3.48-.91-6.86-.97-10.42-.28-15.57,3.48-30.88,10.75-44.68,4.73-8.97,10.84-17.17,18.07-24.51-.94,8.3-1.71,16.43-2.04,24.77-.18,4.42-.12,8.59.19,13.02.46,8.08,1.83,15.97,4.06,23.75,5.24,18.35,15.17,34.34,29.2,47.24.03,0-.06.11-.12.17l-7.49-1.19Z"/>
  <path d="M101.32,152.28c-4.92-3.4-9.89-7.21-14.25-11.64,8.01.79,15.87,1.6,23.93,1.92,9.66.38,19.24-.27,28.69-2.17,5.4-1.09,10.55-2.57,15.72-4.43,7.67-2.76,14.96-6.4,21.76-10.9,5.45-3.6,10.57-7.53,15.07-12.22l3.4-3.54c-.98,10.23-3.73,20.01-7.98,29.25-2.96,6.31-6.47,12.26-10.66,17.83-3.3,4.38-7.02,8.36-10.96,12.17-16.92,2.08-33.45-.58-48.93-7.47-5.56-2.47-10.78-5.36-15.78-8.81Z"/>
  <path d="M71.18,57.62c-18.19,1.75-35.81,7.8-50.74,18.42-5.91,4.08-11.19,8.72-16.17,14.1,1.97-20.2,9.81-38.48,22.97-53.66,1.6-1.87,3.16-3.57,4.97-5.24,21.45-2.7,42.13,2.31,60.48,13.58,5.62,3.45,10.86,7.32,15.76,11.68l3.27,2.91c-13.64-1.76-26.72-3.13-40.54-1.8Z"/>
  <path d="M13.43,140.31c-4.25-8.44-7.04-17.28-8.49-26.52-.81-5.18-1.26-10.25-1.06-15.52,7.86-10.34,18.64-18.91,30.16-24.85,7.87-4.2,16.66-7.26,25.35-9.1,7.15-1.53,13.45-2.12,20.75-2.37-6.57,5.38-12.98,10.53-19.18,16.16s-11.68,11.82-16.53,18.54c-8.33,11.54-14.15,24.69-16.97,38.64-1.22,6.03-2.03,12.08-1.86,18.18l.17,5.91c-4.85-5.91-8.91-12.25-12.35-19.06Z"/>
  <path d="M159.81,174.09c-8.81,7.06-18.68,12.51-29.33,16.32-10.07,3.6-20.71,5.34-31.38,5.32-4.29-3.43-7.6-6.42-11.3-10.39-12.37-13.65-20.64-30.29-23.89-48.45-.65-3.61-1.13-7.06-1.44-10.7-.19-2.22-.45-4.29-.39-6.64l8.21,10.05c2.96,3.63,5.98,7.06,9.23,10.45,5.35,5.59,11.17,10.57,17.44,15.08,4.84,3.49,11.02,7.07,16.45,9.54,5.89,2.86,11.96,4.97,18.34,6.58,9.09,2.3,18.41,3.14,28.06,2.83Z"/>
</svg>