<?xml version="1.0" encoding="UTF-8"?>
<svg id="Layer_1" data-name="Layer 1" xmlns="http://www.w3.org/2000/svg" viewBox="0 0 64 64">
  <defs>
    <style>
      .cls-1 {
        fill: #fff;
      }

      .cls-2 {
        fill: #ea580c;
      }
    </style>
  </defs>
  <rect width="64" height="64"/>
  <path class="cls-2" d="M43.1,54.78c-3.2,0-6.15-.58-8.86-1.72-2.71-1.15-5.08-2.74-7.11-4.77-2.03-2.03-3.6-4.4-4.71-7.11-1.11-2.71-1.66-5.62-1.66-8.74s.55-6.03,1.66-8.74c1.11-2.71,2.67-5.07,4.68-7.08,2.01-2.01,4.37-3.59,7.08-4.74,2.71-1.15,5.64-1.72,8.8-1.72,3.53,0,6.59.56,9.2,1.69,2.6,1.13,4.91,2.66,6.92,4.58l-5.72,5.72c-1.19-1.31-2.65-2.34-4.37-3.08s-3.73-1.11-6.03-1.11c-1.97,0-3.78.34-5.45,1.02-1.66.68-3.11,1.66-4.34,2.95-1.23,1.29-2.17,2.83-2.83,4.62-.66,1.78-.98,3.74-.98,5.88s.33,4.15.98,5.94c.66,1.79,1.6,3.31,2.83,4.58,1.23,1.27,2.68,2.26,4.34,2.95,1.66.7,3.5,1.05,5.51,1.05,2.42,0,4.49-.38,6.21-1.14,1.72-.76,3.2-1.79,4.43-3.11l5.72,5.72c-2.05,1.97-4.42,3.52-7.11,4.65s-5.75,1.69-9.2,1.69Z"/>
  <path class="cls-1" d="M6.53,54.1V10.84h8.31v43.26H6.53ZM12.68,54.1v-6.83h11.32c1.97,0,3.52-.62,4.65-1.85,1.13-1.23,1.69-2.69,1.69-4.37,0-1.15-.25-2.18-.74-3.11s-1.23-1.67-2.22-2.25c-.98-.57-2.15-.86-3.51-.86h-11.2v-6.77h10.28c1.76,0,3.16-.43,4.18-1.29,1.02-.86,1.54-2.15,1.54-3.88s-.52-3.08-1.57-3.94-2.41-1.29-4.09-1.29h-10.34v-6.83h11.38c2.83,0,5.21.52,7.14,1.57,1.93,1.05,3.39,2.42,4.4,4.12,1,1.7,1.51,3.56,1.51,5.57,0,2.46-.75,4.58-2.25,6.37-1.5,1.78-3.7,3.13-6.62,4.03l.37-2.77c3.24.9,5.74,2.39,7.51,4.46,1.76,2.07,2.65,4.56,2.65,7.48,0,2.3-.57,4.38-1.72,6.25-1.15,1.87-2.8,3.36-4.95,4.49-2.15,1.13-4.75,1.69-7.78,1.69h-11.63Z"/>
</svg>