<?xml version="1.0" encoding="UTF-8"?>
<svg id="Layer_1" xmlns="http://www.w3.org/2000/svg" version="1.1" viewBox="0 0 378 192.6">
  <!-- Generator: Adobe Illustrator 30.1.0, SVG Export Plug-In . SVG Version: 2.1.1 Build 136)  -->
  <g>
    <path d="M206.45,107h-27.36c-.67,0-1.32-.27-1.8-.75l-23.52-23.52-23.51,23.46c-.48.48-1.12.74-1.8.74h-32.1c-1.03,0-1.96-.61-2.35-1.56-.39-.95-.18-2.05.55-2.77L187.46,9.71c.95-.95,2.65-.95,3.6,0l40.47,40.47c.99.99.99,2.61,0,3.6l-27.16,27.16c-.95.96-2.65.95-3.6,0l-12.75-12.75c-.99-.99-.99-2.61,0-3.6l9.29-9.29-8.6-8.6-18.2,18.2,37.62,37.63c.53.47.87,1.15.87,1.92,0,1.41-1.14,2.55-2.54,2.55Z"/>
    <path d="M180.15,101.91h20.15l-35.2-35.2c-.99-.99-.99-2.61,0-3.6l21.8-21.8c.48-.48,1.13-.75,1.8-.75h0c.67,0,1.32.27,1.8.75l12.19,12.2c.99.99.99,2.61,0,3.6l-9.29,9.29,9.15,9.15,23.56-23.56-36.87-36.87-86.75,86.75h24.9s24.57-24.52,24.57-24.52c.99-.99,2.6-.99,3.6,0l24.57,24.57Z" fill="#4eb74a"/>
    <path d="M249.55,107.06c-.67,0-1.32-.27-1.8-.75l-13.96-13.96-9.29,9.29c-1,.99-2.6.99-3.6,0l-12.75-12.75c-.48-.48-.75-1.12-.75-1.8s.27-1.32.75-1.8l27.16-27.16c1-.99,2.6-.99,3.6,0l44.53,44.53c.73.73.94,1.82.55,2.77s-1.32,1.57-2.35,1.57l-32.09.06h0Z"/>
    <path d="M275.51,101.92l-38.39-38.4-23.56,23.56,9.15,9.15,9.29-9.29c.5-.5,1.15-.75,1.8-.75s1.3.25,1.8.75l15.01,15.01,24.91-.05Z" fill="#4eb74a"/>
  </g>
  <g>
    <g>
      <path d="M9,119.75h9.49l15.43,21.76v-21.76h7.44v30.86h-9.4l-15.56-21.97v21.97h-7.4v-30.86Z"/>
      <path d="M48.42,119.75h27.4v6.33h-19.66v5.13h17.53v6.33h-17.53v6.76h19.66v6.33h-27.4v-30.86Z"/>
      <path d="M90.47,134.97l-12.14-15.22h9.75l7.1,9.66,7.1-9.66h9.53l-12.18,15.13,12.61,15.73h-9.96l-7.18-9.92-7.65,9.92h-9.7l12.74-15.65Z"/>
      <path d="M131.31,150.62h-7.7v-24.54h-10.56v-6.33h28.81v6.33h-10.56v24.54Z"/>
      <path d="M171.24,119.75h7.44l14.07,30.86h-8.59l-2.82-6.54h-13.59l-2.78,6.54h-8.34l14.62-30.86ZM178.55,137.83l-4.15-9.53-4.02,9.53h8.17Z"/>
      <path d="M201.35,139.93v.3c0,3.42,3.03,5.34,8.98,5.34,4.57,0,7.05-1.41,7.05-3.8s-1.92-2.91-6.07-3.33l-5.47-.56c-7.87-.81-11.67-3.46-11.67-8.68,0-5.81,5.56-10.26,14.88-10.26,9.88,0,15.39,3.98,15.39,10.05v.26h-7.69c-.34-3.08-2.86-4.62-7.57-4.62-4.45,0-6.84,1.37-6.84,3.55,0,2.31,1.97,2.61,6.24,3.08l5.73.6c7.78.85,11.5,3.63,11.5,9.06,0,6.8-5.56,10.52-16.42,10.52s-15.95-4.02-15.95-10.86v-.64h7.91Z"/>
      <path d="M248.02,151.43c-11.37,0-18.51-6.46-18.51-16.24s7.14-16.24,18.51-16.24c10.17,0,16.89,5.09,17.66,12.06h-8.42c-1.03-3.76-4.15-5.73-9.23-5.73-6.16,0-10,3.76-10,9.92s3.85,9.88,10,9.88c5.43,0,8.81-2.39,9.32-6.41h8.46c-.81,7.61-7.61,12.78-17.78,12.78Z"/>
      <path d="M271.06,119.75h27.4v6.33h-19.66v5.13h17.53v6.33h-17.53v6.76h19.66v6.33h-27.4v-30.86Z"/>
      <path d="M304.25,119.75h9.49l15.43,21.76v-21.76h7.44v30.86h-9.4l-15.56-21.97v21.97h-7.4v-30.86Z"/>
      <path d="M358.44,150.62h-7.69v-24.54h-10.56v-6.33h28.81v6.33h-10.56v24.54Z"/>
    </g>
    <g>
      <path d="M88.28,162.48h2.37l9.38,20.58h-2.08l-2.88-6.36h-11.26l-2.91,6.36h-2.11l9.49-20.58ZM94.15,174.71l-4.7-10.52-4.73,10.52h9.43Z"/>
      <path d="M120.04,164.34c2.28,1.77,3.31,4.53,3.31,8.44s-1.03,6.67-3.31,8.44c-2.11,1.62-4.76,1.85-8.44,1.85h-7.5v-20.58h7.5c3.68,0,6.33.23,8.44,1.85ZM106.16,164.34v16.76h5.44c2.93,0,5.07-.2,6.75-1.31,2.02-1.34,2.88-3.65,2.88-7.15s-.91-5.7-2.88-7.01c-1.74-1.14-4.02-1.28-7.21-1.28h-4.99Z"/>
      <path d="M125.41,162.48h2.25l8.27,18.81,8.26-18.81h2.25l-9.23,20.58h-2.59l-9.21-20.58Z"/>
      <path d="M150.47,162.48h15.82v1.91h-13.77v7.21h12.71v1.94h-12.71v7.58h13.77v1.94h-15.82v-20.58Z"/>
      <path d="M170.89,162.48h2.62l14.39,18.47v-18.47h2v20.58h-2.74l-14.28-18.47v18.47h-1.99v-20.58Z"/>
      <path d="M201.85,164.36h-7.95v-1.88h17.96v1.88h-7.95v18.7h-2.05v-18.7Z"/>
      <path d="M217.91,162.48v12.63c0,4.45,2.08,6.5,6.87,6.5s6.9-2.05,6.9-6.5v-12.63h2.08v13.17c0,5.1-3.16,7.95-8.98,7.95s-8.95-2.79-8.95-8.04v-13.08h2.08Z"/>
      <path d="M239.85,162.48h9.86c4.9,0,7.38,1.85,7.38,5.53,0,2.71-1.08,4.3-3.56,5.13,2.34.37,2.88,1.45,3.16,3.9.31,2.74.14,4.82,1,6.01h-2.39c-.63-1.88-.46-3.93-.71-6.01-.26-2.11-1.45-2.82-4.02-2.82h-8.66v8.83h-2.05v-20.58ZM241.9,164.39v7.89h7.58c3.79,0,5.53-1.05,5.53-3.96,0-3.05-1.82-3.93-5.79-3.93h-7.32Z"/>
      <path d="M262.74,162.48h15.82v1.91h-13.77v7.21h12.71v1.94h-12.71v7.58h13.77v1.94h-15.82v-20.58Z"/>
      <path d="M284.13,176.28v.11c0,3.11,2.54,5.19,6.53,5.19s6.38-1.71,6.38-4.22c0-2.34-1.65-2.94-5.13-3.56l-4.39-.77c-3.28-.57-4.87-2.28-4.87-5.13,0-3.53,2.91-5.96,7.84-5.96s7.98,2.39,8.09,6.33h-2.05c-.26-2.88-2.31-4.45-5.99-4.45s-5.79,1.6-5.79,3.96c0,2.17,1.68,2.91,5.13,3.51l3.9.68c3.73.66,5.41,2.25,5.41,5.3,0,3.93-3.05,6.33-8.35,6.33s-8.81-2.74-8.81-7.01v-.31h2.08Z"/>
    </g>
  </g>
</svg>